<?xml version="1.0" encoding="utf-8"?>
<!-- Generator: Adobe Illustrator 23.0.5, SVG Export Plug-In . SVG Version: 6.00 Build 0)  -->
<svg version="1.1" id="Clab" xmlns="http://www.w3.org/2000/svg" xmlns:xlink="http://www.w3.org/1999/xlink" x="0px" y="0px"
	 width="1024px" height="1024px" viewBox="0 0 1024 1024" style="enable-background:new 0 0 1024 1024;" xml:space="preserve">
<style type="text/css">
	.st0{fill:url(#Cup_1_);}
</style>
<linearGradient id="Cup_1_" gradientUnits="userSpaceOnUse" x1="198.5924" y1="833.7778" x2="763.4447" y2="268.9255">
	<stop  offset="7.042085e-02" style="stop-color:#D7388F"/>
	<stop  offset="0.5" style="stop-color:#F55D69"/>
	<stop  offset="0.9855" style="stop-color:#FE7F58"/>
</linearGradient>
<path id="Cup" class="st0" d="M227.6,382.6c-13,0-25.1,0.1-37.1,0c-23.4-0.3-40.9-17.4-40.9-39.7c0-22.1,16.7-38.8,39.9-39.5
	c10.3-0.3,20.7-0.1,32.3-0.1c0-18.9-0.1-36.6,0-54.3c0.1-27.1,9.8-49.9,31.1-67.1c13.1-10.6,28.2-17.2,45.2-17.6
	c20.5-0.6,41-0.5,61.6-0.5c69-0.1,137.9,0,206.9,0c3.9,0,7.9,0,13,0c0-18.7,0-36.1,0-53.6c0-10.1-0.4-20.2,0.3-30.3
	c1.5-21.9,18.6-37.9,39.7-37.7c21.5,0.2,39,17.1,39.5,39.2c0.5,25.6,0.2,51.1,0.2,76.7c0,1.3,0.2,2.7,0.5,5.7c4.5,0,9.1,0,13.6,0
	c15.1,0,30.3-0.3,45.4,0.1c48.6,1.4,82.4,35.5,83.3,84.3c0.3,17.8,0.1,35.6,0.1,55.3c12,0,23.2-0.5,34.5,0.1
	c24.6,1.2,41.1,22.2,37,46.4c-3.1,18.4-18.8,32.1-38.1,32.6c-12.8,0.3-25.5,0.1-39.2,0.1c-3.3,19.6-6.5,38.7-9.6,57.9
	c-18,111.1-36,222.3-54,333.4c-6,37.2-11.1,74.5-18.3,111.4c-11.3,58.5-55.7,95.5-115.1,96.1c-58.2,0.7-116.4,0.7-174.6,0
	C363.6,980.7,317.6,939,308,878.4c-17.5-110.5-35.7-221-53.6-331.4c-8.3-51.4-16.6-102.9-24.9-154.3
	C229,389.7,228.4,386.7,227.6,382.6z M330.5,518.9c121.6,0,242.2,0,363.2,0c7.4-45.6,14.6-90.5,21.9-135.6c-136.3,0-271.4,0-407,0
	C315.9,428.7,323.1,473.5,330.5,518.9z"/>
</svg>
