<?xml version="1.0" encoding="utf-8"?>
<!-- Generator: Adobe Illustrator 23.0.5, SVG Export Plug-In . SVG Version: 6.00 Build 0)  -->
<svg version="1.1" id="Uninstaller" xmlns="http://www.w3.org/2000/svg" xmlns:xlink="http://www.w3.org/1999/xlink" x="0px"
	 y="0px" width="1024px" height="1024px" viewBox="0 0 1024 1024" style="enable-background:new 0 0 1024 1024;"
	 xml:space="preserve">
<style type="text/css">
	.st0{fill:#E03834;}
	.st1{fill:#FFFFFF;}
</style>
<circle id="Ellipse" class="st0" cx="512" cy="512" r="451.4"/>
<path id="Cross" class="st1" d="M504.6,571.6c4.1-4.1,10.7-4.1,14.8,0l0.1,0.1c24.4,24.6,49,49.1,73.5,73.6
	c10.2,10.2,20.2,20.7,30.7,30.5c11.6,10.9,25.5,13.4,40.1,7.3c14-5.9,21.4-17.2,22.3-32.4c0.7-12-4.5-21.7-12.9-30
	c-34-33.8-67.9-67.8-101.7-101.7c-0.1-0.1-0.3-0.3-0.4-0.4c-3.6-3.7-3.6-9.6,0-13.3c0,0,0,0,0.1-0.1c21.6-21.7,43.3-43.3,64.9-65
	c13.1-13.1,26.4-25.9,39.1-39.3c16.1-16.9,14.4-42-3.4-55.7c-15.1-11.7-35.5-9.9-50.2,4.8c-34.2,34-68.2,68.2-102.4,102.3
	c0,0,0,0-0.1,0.1c-3.9,3.9-10.3,3.9-14.2,0c0,0-0.1-0.1-0.1-0.1c-34.1-34.1-68.2-68.3-102.4-102.3c-13.4-13.3-31.1-16.1-45.9-7.7
	c-22,12.5-25.3,40.9-6.6,59.8c34.2,34.4,68.6,68.7,102.9,103l0.1,0.1c3.8,3.8,3.7,10.1-0.3,13.8c-0.2,0.2-0.4,0.4-0.6,0.6
	c-33.9,33.9-67.9,67.7-101.7,101.7c-16.2,16.3-16.9,39.1-1.8,54.1s37.7,14.4,54.1-1.8c16.5-16.2,32.7-32.6,49-49
	C469,607.5,486.1,590.2,504.6,571.6z"/>
</svg>
