<?xml version="1.0" encoding="utf-8"?>
<!-- Generator: Adobe Illustrator 23.0.5, SVG Export Plug-In . SVG Version: 6.00 Build 0)  -->
<svg version="1.1" id="Settings.Locate" xmlns="http://www.w3.org/2000/svg" xmlns:xlink="http://www.w3.org/1999/xlink" x="0px"
	 y="0px" width="1024px" height="1024px" viewBox="0 0 1024 1024" style="enable-background:new 0 0 1024 1024;"
	 xml:space="preserve">
<style type="text/css">
	.st0{fill:#FBD254;}
	.st1{fill:#FEB025;}
	.st2{fill:#48ACFE;}
</style>
<g id="OpenFolder">
	<path class="st0" d="M894.3,906.2c-3.3,0.1-6.7,0.4-10,0.4c-253.3,0-506.5,0-759.8,0c-40.1,0-64.1-24-64.1-63.9
		c0-181.2,0-362.4,0-543.6c0-40,24-63.9,64.1-63.9c53.5,0,107,0.5,160.5-0.2c34.9-0.4,62.7,11.9,82.5,41c0.8,1.2,2.1,2.1,3.2,3.2
		c0.3,0.6,0.4,1.2,0.8,1.6c21.9,30.4,43.5,61.1,66,91.2c12.8,17.2,30.8,24.7,52.4,23.8c12.4-0.5,24.9-0.1,37.4-0.1
		c0.1,31.9,0.1,63.8,0.4,95.7c0.1,5.2-1.5,6.7-6.7,6.6c-21-0.3-41.9,0-62.9-0.2c-7.6-0.1-13.9,1.8-17,9.4c-3,7.3,0.3,12.8,5.4,17.9
		c47.1,47,94.1,94.1,141.2,141.1c9.4,9.4,16.4,9.4,25.8,0c47.1-47,94.1-94.1,141.2-141.1c5.1-5.1,8.3-10.6,5.4-17.9
		c-3.1-7.6-9.4-9.5-17-9.4c-21,0.2-41.9-0.1-62.9,0.2c-5.1,0.1-6.7-1.4-6.7-6.6c0.3-31.9,0.3-63.8,0.4-95.7c54.4,0,108.8,0,163.1,0
		c11.7,0,11.7,0,11.7,11.8c0,146.7,0,293.4-0.1,440.2c0,7.1,1.3,13.8,3.6,20.4C859.3,888.5,875,899.2,894.3,906.2z"/>
	<path class="st1" d="M894.3,906.2c-19.2-6.9-35-17.7-42.1-38.1c-2.3-6.6-3.6-13.3-3.6-20.4c0.1-146.7,0.1-293.4,0.1-440.2
		c0-11.8,0-11.8-11.7-11.8c-54.4,0-108.8,0-163.1,0c-1.9-40.9,6-79.9,23.4-116.9c49.3,0.1,98.5,0.1,147.8,0.2
		c69.6,0.1,120.5,50.7,120.5,120.1c0,146.9-0.7,293.8,0.5,440.6C966.2,878.7,939.7,911.7,894.3,906.2z"/>
	<path class="st2" d="M697.1,278.7c-17.4,37.1-25.3,76-23.4,116.9c-0.1,31.9-0.1,63.8-0.4,95.7c-0.1,5.2,1.5,6.7,6.7,6.6
		c21-0.3,41.9,0,62.9-0.2c7.6-0.1,13.9,1.8,17,9.4c3,7.3-0.3,12.8-5.4,17.9c-47.1,47-94.1,94.1-141.2,141.1
		c-9.4,9.4-16.4,9.3-25.8,0c-47.1-47-94.1-94.1-141.2-141.1c-5.1-5.1-8.4-10.6-5.4-17.9c3.1-7.6,9.4-9.5,17-9.4
		c21,0.2,41.9-0.1,62.9,0.2c5.1,0.1,6.7-1.4,6.7-6.6c-0.3-31.9-0.3-63.8-0.4-95.7c-0.7-40,4.5-79,18.9-116.6
		c14.4-31.9,33.7-60.3,60.1-83.6c41.5-36.6,90.7-56.7,144.1-67.8c31.3-6.5,63-9.3,95-9.3c11.4,0,18,5.5,17.9,14.8
		c-0.1,8.8-6.4,14-17.4,14.5c-28.1,1.2-52.3,12.4-73.9,29.6C737.8,204.3,713.7,238.7,697.1,278.7z"/>
	<path class="st1" d="M546,279c-14.4,37.6-19.5,76.6-18.9,116.6c-12.5,0-24.9-0.4-37.4,0.1c-21.6,0.8-39.6-6.7-52.4-23.8
		c-22.4-30-44-60.7-66-91.2c-0.3-0.5-0.5-1.1-0.8-1.6C429.1,279.1,487.6,279.1,546,279z"/>
</g>
</svg>
